<?xml version="1.0" standalone="no"?>
<!DOCTYPE svg PUBLIC "-//W3C//DTD SVG 20010904//EN"
 "http://www.w3.org/TR/2001/REC-SVG-20010904/DTD/svg10.dtd">
<svg version="1.0" xmlns="http://www.w3.org/2000/svg"
 width="320.000000pt" height="320.000000pt" viewBox="0 0 320.000000 320.000000"
 preserveAspectRatio="xMidYMid meet">
<metadata>
Created by potrace 1.11, written by Peter Selinger 2001-2013
</metadata>
<g transform="translate(0.000000,320.000000) scale(0.100000,-0.100000)"
fill="#000000" stroke="none">
<path d="M782 3079 c-124 -31 -236 -104 -298 -194 -24 -36 -64 -120 -64 -136
0 -6 -21 -32 -46 -57 -52 -51 -121 -153 -131 -192 -3 -14 -8 -29 -12 -35 -6
-11 -7 -13 -18 -65 -13 -61 -7 -221 10 -279 22 -70 60 -135 95 -160 51 -36
122 -37 122 -3 0 10 24 31 58 52 31 19 83 60 114 91 l58 57 22 -19 c58 -48
110 -108 130 -149 21 -42 23 -60 24 -265 1 -121 4 -233 8 -250 3 -16 9 -43 12
-60 3 -16 15 -61 27 -100 11 -38 21 -72 22 -75 14 -47 97 -210 107 -210 4 0 8
-5 8 -11 0 -27 139 -180 229 -252 66 -53 278 -167 311 -167 5 0 21 -5 37 -12
15 -6 34 -12 41 -14 38 -7 39 -12 38 -105 l-1 -93 -119 -1 c-101 -1 -120 -3
-131 -18 -14 -19 -9 -53 8 -64 5 -3 48 -5 95 -5 l85 2 -19 -22 c-10 -12 -31
-33 -47 -46 -42 -36 -51 -60 -36 -88 21 -40 54 -23 159 82 l96 96 -1 102 c-1
55 1 107 3 114 5 13 11 13 117 -5 34 -5 192 -6 214 -1 12 2 15 -12 16 -70 0
-39 -2 -73 -5 -73 -3 -1 -55 -2 -116 -3 -116 -2 -144 -11 -144 -46 0 -33 27
-43 110 -42 44 1 80 -2 80 -6 0 -4 -22 -30 -50 -57 -54 -53 -64 -87 -31 -105
11 -5 24 -10 30 -10 5 0 56 46 113 103 l103 102 -2 95 c-2 126 0 136 37 144
56 11 194 86 250 136 l54 48 111 -112 c105 -107 217 -196 247 -196 8 0 18 -4
24 -10 9 -9 50 -14 85 -11 27 2 29 26 8 81 -26 70 -109 234 -120 238 -5 2 -9
9 -9 17 0 7 -30 64 -66 126 -37 63 -75 128 -84 145 -17 29 -131 216 -171 279
-179 284 -592 871 -676 960 -10 11 -25 29 -33 41 -17 24 -115 136 -175 200
-22 23 -49 55 -60 70 -11 15 -30 41 -42 57 -13 17 -23 36 -23 42 0 6 -9 17
-20 25 -11 8 -20 18 -20 23 0 13 -96 134 -149 188 -170 172 -375 233 -599 178z"/>
</g>
</svg>
