<?xml version="1.0" encoding="UTF-8"?>
<svg width="26px" height="26px" viewBox="0 0 26 26" version="1.1" xmlns="http://www.w3.org/2000/svg" xmlns:xlink="http://www.w3.org/1999/xlink">
    <!-- Generator: Sketch 50.2 (55047) - http://www.bohemiancoding.com/sketch -->
    <title>Home icon Copy</title>
    <desc>Created with Sketch.</desc>
    <defs></defs>
    <g id="Page-1" stroke="none" stroke-width="1" fill="none" fill-rule="evenodd">
        <g id="Desktop-HD-Copy-11" transform="translate(-778.000000, -139.000000)">
            <g id="Home-icon-Copy" transform="translate(780.000000, 140.296875)">
                <path d="M4.77229864,23.9161632 L18.3259355,23.9161654 C19.7169999,23.9161654 20.9255928,22.9598988 21.245519,21.6061236 C22.1397453,17.822184 21.9133976,14.1775837 20.5664758,10.6723228 C19.1858375,7.0793174 16.7799528,4.02862299 13.3488216,1.52023953 L13.3488149,1.52024865 C12.2588849,0.723437836 10.7709572,0.752873139 9.7133938,1.59216728 C6.095852,4.46308897 3.67462249,7.48980746 2.44970526,10.6723228 C1.26461569,13.75136 1.05574596,17.3492226 1.82309606,21.4659107 L1.82311233,21.4659077 C2.08786987,22.8862818 3.32745984,23.9161632 4.77229864,23.9161632 Z" id="Path-3" fill="#2C3142"></path>
                <path d="M0.313964844,10.7207031 L9.84130859,1.23730469 C10.2107747,0.869466146 10.7369792,0.685546875 11.4199219,0.685546875 C12.1028646,0.685546875 12.5747884,0.869466146 12.8356934,1.23730469 L22.3381348,10.7207031" id="Path-6" stroke="#2C3142" stroke-width="3" stroke-linecap="round" stroke-linejoin="round"></path>
                <path d="M18.2348633,1.55761719 L18.2348633,6.89707554" id="Path-7" stroke="#2C3142" stroke-width="3" stroke-linecap="round"></path>
            </g>
        </g>
    </g>
</svg>