<?xml version="1.0" encoding="UTF-8"?>
<svg width="284px" height="39px" viewBox="0 0 284 39" version="1.1" xmlns="http://www.w3.org/2000/svg" xmlns:xlink="http://www.w3.org/1999/xlink">
    <!-- Generator: Sketch 50.2 (55047) - http://www.bohemiancoding.com/sketch -->
    <title>2. IBAN</title>
    <desc>Created with Sketch.</desc>
    <defs></defs>
    <g id="Page-1" stroke="none" stroke-width="1" fill="none" fill-rule="evenodd">
        <g id="Desktop-HD-Copy-9" transform="translate(-574.000000, -312.000000)">
            <g id="2.-IBAN" transform="translate(574.097656, 312.098815)">
                <rect id="Rectangle-3-Copy-3" fill="#E9ECF6" x="0.40625" y="0.546875" width="283.293446" height="37.3725229" rx="4"></rect>
                <path d="M19.8367202,27.0159417 C19.6967195,27.0159417 19.5742207,26.9634423 19.4692202,26.8584417 C19.3642196,26.7534412 19.3117202,26.6309424 19.3117202,26.4909417 L19.3117202,12.8619417 C19.3117202,12.707941 19.3607197,12.5784423 19.4587202,12.4734417 C19.5567207,12.3684412 19.6827194,12.3159417 19.8367202,12.3159417 L22.2097202,12.3159417 C22.5317218,12.3159417 22.7697194,12.4489404 22.9237202,12.7149417 L27.8797202,20.5479417 L27.8797202,12.8619417 C27.8797202,12.707941 27.9287197,12.5784423 28.0267202,12.4734417 C28.1247207,12.3684412 28.2507194,12.3159417 28.4047202,12.3159417 L31.0717202,12.3159417 C31.2257209,12.3159417 31.3517197,12.3684412 31.4497202,12.4734417 C31.5477207,12.5784423 31.5967202,12.707941 31.5967202,12.8619417 L31.5967202,26.4699417 C31.5967202,26.6239425 31.5477207,26.7534412 31.4497202,26.8584417 C31.3517197,26.9634423 31.2257209,27.0159417 31.0717202,27.0159417 L28.6987202,27.0159417 C28.3767186,27.0159417 28.1387209,26.8829431 27.9847202,26.6169417 L23.0497202,19.0989417 L23.0497202,26.4909417 C23.0497202,26.6449425 22.9972207,26.7709413 22.8922202,26.8689417 C22.7872196,26.9669422 22.6577209,27.0159417 22.5037202,27.0159417 L19.8367202,27.0159417 Z M34.7443868,27.0159417 C34.6043861,27.0159417 34.4818873,26.9634423 34.3768868,26.8584417 C34.2718862,26.7534412 34.2193868,26.6309424 34.2193868,26.4909417 L34.2193868,12.8409417 C34.2193868,12.686941 34.2718862,12.5609422 34.3768868,12.4629417 C34.4818873,12.3649413 34.6043861,12.3159417 34.7443868,12.3159417 L37.6843868,12.3159417 C37.8383875,12.3159417 37.9643863,12.3649413 38.0623868,12.4629417 C38.1603873,12.5609422 38.2093868,12.686941 38.2093868,12.8409417 L38.2093868,23.7189417 L44.5093868,23.7189417 C44.6633875,23.7189417 44.7928862,23.7714412 44.8978868,23.8764417 C45.0028873,23.9814423 45.0553868,24.110941 45.0553868,24.2649417 L45.0553868,26.4909417 C45.0553868,26.6449425 45.0028873,26.7709413 44.8978868,26.8689417 C44.7928862,26.9669422 44.6633875,27.0159417 44.5093868,27.0159417 L34.7443868,27.0159417 Z M77.0057198,27.0159417 C76.8937192,27.0159417 76.7922202,26.9704422 76.7012198,26.8794417 C76.6102193,26.7884413 76.5647198,26.6869423 76.5647198,26.5749417 C76.5647198,26.4909413 76.5717197,26.427942 76.5857198,26.3859417 L81.4787198,12.9249417 C81.6187205,12.5189397 81.8987177,12.3159417 82.3187198,12.3159417 L85.5947198,12.3159417 C86.0147219,12.3159417 86.2947191,12.5189397 86.4347198,12.9249417 L91.3277198,26.3859417 C91.3417198,26.427942 91.3487198,26.4909413 91.3487198,26.5749417 C91.3487198,26.6869423 91.3032202,26.7884413 91.2122198,26.8794417 C91.1212193,26.9704422 91.0197203,27.0159417 90.9077198,27.0159417 L88.1777198,27.0159417 C87.8417181,27.0159417 87.6037205,26.8619433 87.4637198,26.5539417 L86.7077198,24.5169417 L81.2057198,24.5169417 L80.4497198,26.5539417 C80.3097191,26.8619433 80.0717214,27.0159417 79.7357198,27.0159417 L77.0057198,27.0159417 Z M82.0877198,21.3669417 L85.8257198,21.3669417 L83.9567198,16.0119417 L82.0877198,21.3669417 Z M93.2363864,27.0159417 C93.0963857,27.0159417 92.9738869,26.9634423 92.8688864,26.8584417 C92.7638858,26.7534412 92.7113864,26.6309424 92.7113864,26.4909417 L92.7113864,12.8619417 C92.7113864,12.707941 92.7603859,12.5784423 92.8583864,12.4734417 C92.9563869,12.3684412 93.0823856,12.3159417 93.2363864,12.3159417 L99.7253864,12.3159417 C101.503395,12.3159417 102.826382,12.6799381 103.694386,13.4079417 C104.562391,14.1359454 104.996386,15.171935 104.996386,16.5159417 C104.996386,17.1879451 104.817888,17.7689393 104.460886,18.2589417 C104.103885,18.7489442 103.708389,19.1059406 103.274386,19.3299417 C103.848389,19.581943 104.331384,19.9984388 104.723386,20.5794417 C105.115388,21.1604446 105.311386,21.8149381 105.311386,22.5429417 C105.311386,23.9569488 104.845891,25.0559378 103.914886,25.8399417 C102.983882,26.6239457 101.650395,27.0159417 99.9143864,27.0159417 L93.2363864,27.0159417 Z M99.2843864,18.1329417 C99.802389,18.1329417 100.201385,17.9929431 100.481386,17.7129417 C100.761388,17.4329403 100.901386,17.068944 100.901386,16.6209417 C100.901386,16.1869396 100.764888,15.8334431 100.491886,15.5604417 C100.218885,15.2874404 99.816389,15.1509417 99.2843864,15.1509417 L96.6593864,15.1509417 L96.6593864,18.1329417 L99.2843864,18.1329417 Z M99.4733864,24.1809417 C100.019389,24.1809417 100.442885,24.0234433 100.743886,23.7084417 C101.044888,23.3934402 101.195386,23.0049441 101.195386,22.5429417 C101.195386,22.0669394 101.041388,21.6714433 100.733386,21.3564417 C100.425385,21.0414402 100.005389,20.8839417 99.4733864,20.8839417 L96.6593864,20.8839417 L96.6593864,24.1809417 L99.4733864,24.1809417 Z M113.415053,27.2259417 C111.413043,27.2259417 109.841559,26.7429466 108.700553,25.7769417 C107.559547,24.8109369 106.954053,23.3969511 106.884053,21.5349417 C106.870053,21.1569399 106.863053,20.540946 106.863053,19.6869417 C106.863053,18.8189374 106.870053,18.1889437 106.884053,17.7969417 C106.954053,15.9769326 107.566547,14.5734467 108.721553,13.5864417 C109.876559,12.5994368 111.441043,12.1059417 113.415053,12.1059417 C114.661059,12.1059417 115.777548,12.3089397 116.764553,12.7149417 C117.751558,13.1209438 118.53205,13.7089379 119.106053,14.4789417 C119.680056,15.2489456 119.981053,16.1589365 120.009053,17.2089417 C120.009053,17.3349424 119.963553,17.4399413 119.872553,17.5239417 C119.781553,17.6079422 119.673054,17.6499417 119.547053,17.6499417 L116.565053,17.6499417 C116.369052,17.6499417 116.225553,17.6114421 116.134553,17.5344417 C116.043553,17.4574414 115.963053,17.3139428 115.893053,17.1039417 C115.697052,16.4179383 115.399555,15.9384431 115.000553,15.6654417 C114.601551,15.3924404 114.073056,15.2559417 113.415053,15.2559417 C111.833045,15.2559417 111.014053,16.1379329 110.958053,17.9019417 C110.944053,18.2799436 110.937053,18.8609378 110.937053,19.6449417 C110.937053,20.4289457 110.944053,21.0239397 110.958053,21.4299417 C111.014053,23.1939506 111.833045,24.0759417 113.415053,24.0759417 C114.059056,24.0759417 114.587551,23.9359431 115.000553,23.6559417 C115.413555,23.3759403 115.711052,22.8999451 115.893053,22.2279417 C115.949053,22.0179407 116.026052,21.8744421 116.124053,21.7974417 C116.222053,21.7204414 116.369052,21.6819417 116.565053,21.6819417 L119.547053,21.6819417 C119.673054,21.6819417 119.781553,21.7239413 119.872553,21.8079417 C119.963553,21.8919422 120.009053,21.9969411 120.009053,22.1229417 C119.981053,23.172947 119.680056,24.0829379 119.106053,24.8529417 C118.53205,25.6229456 117.751558,26.2109397 116.764553,26.6169417 C115.777548,27.0229438 114.661059,27.2259417 113.415053,27.2259417 Z M122.44272,27.0159417 C122.302719,27.0159417 122.18022,26.9634423 122.07522,26.8584417 C121.970219,26.7534412 121.91772,26.6309424 121.91772,26.4909417 L121.91772,12.8619417 C121.91772,12.707941 121.966719,12.5784423 122.06472,12.4734417 C122.16272,12.3684412 122.288719,12.3159417 122.44272,12.3159417 L127.96572,12.3159417 C130.03773,12.3159417 131.647714,12.8094368 132.79572,13.7964417 C133.943725,14.7834467 134.545719,16.2009325 134.60172,18.0489417 C134.61572,18.4549438 134.62272,18.9939384 134.62272,19.6659417 C134.62272,20.3379451 134.61572,20.8699398 134.60172,21.2619417 C134.461719,25.0979609 132.284741,27.0159417 128.07072,27.0159417 L122.44272,27.0159417 Z M127.96572,23.8659417 C128.847724,23.8659417 129.498717,23.6559438 129.91872,23.2359417 C130.338722,22.8159396 130.562719,22.1439464 130.59072,21.2199417 C130.61872,20.8139397 130.63272,20.288945 130.63272,19.6449417 C130.63272,19.0009385 130.61872,18.4829437 130.59072,18.0909417 C130.562719,17.1949373 130.321222,16.5334439 129.86622,16.1064417 C129.411217,15.6794396 128.742724,15.4659417 127.86072,15.4659417 L125.86572,15.4659417 L125.86572,23.8659417 L127.96572,23.8659417 Z" id="NL-12-ABCD-012345678" fill="#363C4C"></path>
                <g id="Group-4" transform="translate(140.000000, 12.000000)" fill="#EF566C">
                    <path d="M6.69305277,15.2259417 C4.76104311,15.2119417 3.29105781,14.7009468 2.28305277,13.6929417 C1.27504773,12.6849367 0.722053259,11.35495 0.624052769,9.70294174 C0.596052629,8.94693796 0.582052769,8.26794475 0.582052769,7.66594174 C0.582052769,7.04993866 0.596052629,6.34994566 0.624052769,5.56594174 C0.680053049,4.51593649 0.942550424,3.58144584 1.41155277,2.76244174 C1.88055511,1.94343765 2.55954832,1.29594412 3.44855277,0.819941742 C4.33755721,0.343939362 5.4190464,0.105941742 6.69305277,0.105941742 C7.96705914,0.105941742 9.05204829,0.343939362 9.94805277,0.819941742 C10.8440572,1.29594412 11.5265504,1.94343765 11.9955528,2.76244174 C12.4645551,3.58144584 12.7270525,4.51593649 12.7830528,5.56594174 C12.8110529,5.9579437 12.8250528,6.6579367 12.8250528,7.66594174 C12.8250528,8.64594664 12.8110529,9.32493985 12.7830528,9.70294174 C12.6850523,11.35495 12.1320578,12.6849367 11.1240528,13.6929417 C10.1160477,14.7009468 8.6390625,15.2119417 6.69305277,15.2259417 Z M6.69305277,12.0549417 C7.35105606,12.0549417 7.84105116,11.8414439 8.16305277,11.4144417 C8.48505438,10.9874396 8.66005263,10.3819457 8.68805277,9.59794174 C8.71605291,9.19193971 8.73005277,8.53394629 8.73005277,7.62394174 C8.73005277,6.71393719 8.71605291,6.06994363 8.68805277,5.69194174 C8.66005263,4.93593796 8.48505438,4.33744395 8.16305277,3.89644174 C7.84105116,3.45543954 7.35105606,3.23494174 6.69305277,3.23494174 C5.43304647,3.23494174 4.76805312,4.05393355 4.69805277,5.69194174 C4.6840527,6.06994363 4.67705277,6.71393719 4.67705277,7.62394174 C4.67705277,8.53394629 4.6840527,9.19193971 4.69805277,9.59794174 C4.76805312,11.2359499 5.43304647,12.0549417 6.69305277,12.0549417 Z M19.4797194,15.0159417 C19.3397187,15.0159417 19.2172199,14.9634423 19.1122194,14.8584417 C19.0072188,14.7534412 18.9547194,14.6309424 18.9547194,14.4909417 L18.9547194,4.66294174 L16.1407194,6.82594174 C16.0287188,6.89594209 15.9237199,6.93094174 15.8257194,6.93094174 C15.6577185,6.93094174 15.51072,6.84694258 15.3847194,6.67894174 L14.0827194,4.99894174 C14.0267191,4.90094125 13.9987194,4.7959423 13.9987194,4.68394174 C13.9987194,4.48794076 14.0757186,4.3339423 14.2297194,4.22194174 L19.1017194,0.462941742 C19.2417201,0.364941252 19.4027185,0.315941742 19.5847194,0.315941742 L22.3567194,0.315941742 C22.5107201,0.315941742 22.6402188,0.364941252 22.7452194,0.462941742 C22.8502199,0.560942232 22.9027194,0.686940972 22.9027194,0.840941742 L22.9027194,14.4909417 C22.9027194,14.6449425 22.8502199,14.7709413 22.7452194,14.8689417 C22.6402188,14.9669422 22.5107201,15.0159417 22.3567194,15.0159417 L19.4797194,15.0159417 Z M25.399386,15.0159417 C25.2593853,15.0159417 25.1368865,14.9634423 25.031886,14.8584417 C24.9268854,14.7534412 24.874386,14.6309424 24.874386,14.4909417 L24.874386,12.9159417 C24.874386,12.4959396 25.0493842,12.1459431 25.399386,11.8659417 L27.352386,9.95494174 C28.6823926,8.9469367 29.6868826,8.16294454 30.365886,7.60294174 C31.0448894,7.04293894 31.5628842,6.53544402 31.919886,6.08044174 C32.2768878,5.62543947 32.455386,5.19494377 32.455386,4.78894174 C32.455386,3.75293656 31.9373911,3.23494174 30.901386,3.23494174 C30.3553832,3.23494174 29.9353874,3.3994401 29.641386,3.72844174 C29.3473845,4.05744339 29.1513865,4.46693929 29.053386,4.95694174 C28.9693855,5.27894335 28.7313879,5.43994174 28.339386,5.43994174 L25.567386,5.43994174 C25.4413853,5.43994174 25.3328864,5.3944422 25.241886,5.30344174 C25.1508855,5.21244129 25.105386,5.1109423 25.105386,4.99894174 C25.1333861,4.07493712 25.3888836,3.23844549 25.871886,2.48944174 C26.3548884,1.740438 27.0303816,1.14544395 27.898386,0.704441742 C28.7663903,0.263439537 29.7673803,0.0429417418 30.901386,0.0429417418 C32.0773918,0.0429417418 33.0923817,0.231939852 33.946386,0.609941742 C34.8003902,0.987943632 35.4478838,1.51993831 35.888886,2.20594174 C36.3298882,2.89194517 36.550386,3.68993719 36.550386,4.59994174 C36.550386,5.60794678 36.2388891,6.51793768 35.615886,7.32994174 C34.9928829,8.1419458 34.0443923,9.02393698 32.770386,9.97594174 L31.027386,11.7189417 L36.340386,11.7189417 C36.4943867,11.7189417 36.6203855,11.7679413 36.718386,11.8659417 C36.8163865,11.9639422 36.865386,12.089941 36.865386,12.2439417 L36.865386,14.4909417 C36.865386,14.6309424 36.8163865,14.7534412 36.718386,14.8584417 C36.6203855,14.9634423 36.4943867,15.0159417 36.340386,15.0159417 L25.399386,15.0159417 Z M44.4230526,15.2259417 C43.0510457,15.2259417 41.8995572,15.0124439 40.9685526,14.5854417 C40.0375479,14.1584396 39.3515548,13.6299449 38.9105526,12.9999417 C38.4695504,12.3699386 38.2350527,11.7399449 38.2070526,11.1099417 C38.2070526,10.9839411 38.2525521,10.8789422 38.3435526,10.7949417 C38.434553,10.7109413 38.5430519,10.6689417 38.6690526,10.6689417 L41.5670526,10.6689417 C41.7350534,10.6689417 41.8680521,10.7004414 41.9660526,10.7634417 C42.0640531,10.8264421 42.1550521,10.927941 42.2390526,11.0679417 C42.5050539,11.7539452 43.2400465,12.0969417 44.4440526,12.0969417 C45.130056,12.0969417 45.6620507,11.9359434 46.0400526,11.6139417 C46.4180545,11.2919401 46.6070526,10.8579445 46.6070526,10.3119417 C46.6070526,9.26193649 45.9070596,8.73694174 44.5070526,8.73694174 L42.1550526,8.73694174 C42.0010518,8.73694174 41.8715531,8.68444227 41.7665526,8.57944174 C41.661552,8.47444122 41.6090526,8.34494251 41.6090526,8.19094174 L41.6090526,6.95194174 C41.6090526,6.62994013 41.7280514,6.39194251 41.9660526,6.23794174 L45.3470526,3.46594174 L39.5510526,3.46594174 C39.4110519,3.46594174 39.2885531,3.41344227 39.1835526,3.30844174 C39.078552,3.20344122 39.0260526,3.08094244 39.0260526,2.94094174 L39.0260526,0.861941742 C39.0260526,0.707940972 39.0750521,0.578442267 39.1730526,0.473441742 C39.2710531,0.368441217 39.3970518,0.315941742 39.5510526,0.315941742 L49.3370526,0.315941742 C49.4910533,0.315941742 49.6170521,0.368441217 49.7150526,0.473441742 C49.8130531,0.578442267 49.8620526,0.707940972 49.8620526,0.861941742 L49.8620526,2.73094174 C49.8620526,3.02494321 49.7500537,3.2559409 49.5260526,3.42394174 L46.4180526,6.25894174 L46.5650526,6.30094174 C47.8250589,6.48294265 48.8260489,6.91693831 49.5680526,7.60294174 C50.3100563,8.28894517 50.6810526,9.2759353 50.6810526,10.5639417 C50.6810526,11.5019464 50.4115553,12.3244382 49.8725526,13.0314417 C49.3335499,13.7384453 48.5915573,14.2809399 47.6465526,14.6589417 C46.7015478,15.0369436 45.6270586,15.2259417 44.4230526,15.2259417 Z M59.4357192,15.0159417 C59.2957185,15.0159417 59.1732197,14.9634423 59.0682192,14.8584417 C58.9632186,14.7534412 58.9107192,14.6309424 58.9107192,14.4909417 L58.9107192,12.1809417 L52.4007192,12.1809417 C52.2607185,12.1809417 52.1382197,12.1284423 52.0332192,12.0234417 C51.9282186,11.9184412 51.8757192,11.7959424 51.8757192,11.6559417 L51.8757192,9.53494174 C51.8757192,9.32494069 51.9527184,9.11494279 52.1067192,8.90494174 L58.1967192,0.672941742 C58.3927201,0.434940552 58.6517176,0.315941742 58.9737192,0.315941742 L62.1657192,0.315941742 C62.3197199,0.315941742 62.4492186,0.364941252 62.5542192,0.462941742 C62.6592197,0.560942232 62.7117192,0.686940972 62.7117192,0.840941742 L62.7117192,8.92594174 L64.5597192,8.92594174 C64.72772,8.92594174 64.8607187,8.97844122 64.9587192,9.08344174 C65.0567197,9.18844227 65.1057192,9.31094104 65.1057192,9.45094174 L65.1057192,11.6559417 C65.1057192,11.7959424 65.0567197,11.9184412 64.9587192,12.0234417 C64.8607187,12.1284423 64.7347199,12.1809417 64.5807192,12.1809417 L62.7117192,12.1809417 L62.7117192,14.4909417 C62.7117192,14.6449425 62.6592197,14.7709413 62.5542192,14.8689417 C62.4492186,14.9669422 62.3197199,15.0159417 62.1657192,15.0159417 L59.4357192,15.0159417 Z M55.6137192,9.07294174 L58.9947192,9.07294174 L58.9947192,4.34794174 L55.6137192,9.07294174 Z M72.2853858,15.2469417 C71.0113794,15.2469417 69.9158904,15.0439438 68.9988858,14.6379417 C68.0818812,14.2319397 67.3888881,13.6929451 66.9198858,13.0209417 C66.4508834,12.3489384 66.2023859,11.6139457 66.1743858,10.8159417 C66.1743858,10.6899411 66.2163853,10.5849422 66.3003858,10.5009417 C66.3843862,10.4169413 66.4893851,10.3749417 66.6153858,10.3749417 L69.5763858,10.3749417 C69.9123874,10.3749417 70.1433851,10.5079404 70.2693858,10.7739417 C70.4653867,11.2359441 70.7278841,11.5719407 71.0568858,11.7819417 C71.3858874,11.9919428 71.7953833,12.0969417 72.2853858,12.0969417 C72.8873888,12.0969417 73.3878838,11.9149436 73.7868858,11.5509417 C74.1858878,11.1869399 74.3853858,10.675945 74.3853858,10.0179417 C74.3853858,9.44393887 74.1893877,8.96794363 73.7973858,8.58994174 C73.4053838,8.21193985 72.9013888,8.02294174 72.2853858,8.02294174 C71.935384,8.02294174 71.6553868,8.06844129 71.4453858,8.15944174 C71.2353847,8.2504422 71.0323867,8.37294097 70.8363858,8.52694174 C70.6263847,8.69494258 70.4443865,8.77894174 70.2903858,8.77894174 L67.3713858,8.77894174 C67.2453851,8.77894174 67.1368862,8.7334422 67.0458858,8.64244174 C66.9548853,8.55144129 66.9093858,8.44294237 66.9093858,8.31694174 L67.6863858,0.945941742 C67.7003858,0.749940762 67.7738851,0.595942302 67.9068858,0.483941742 C68.0398864,0.371941182 68.1973849,0.315941742 68.3793858,0.315941742 L76.9263858,0.315941742 C77.0803865,0.315941742 77.2063853,0.364941252 77.3043858,0.462941742 C77.4023863,0.560942232 77.4513858,0.686940972 77.4513858,0.840941742 L77.4513858,2.94094174 C77.4513858,3.08094244 77.4023863,3.20344122 77.3043858,3.30844174 C77.2063853,3.41344227 77.0803865,3.46594174 76.9263858,3.46594174 L70.8153858,3.46594174 L70.5633858,6.04894174 C70.8993874,5.81094055 71.2773837,5.63244234 71.6973858,5.51344174 C72.1173879,5.39444115 72.6633824,5.33494174 73.3353858,5.33494174 C74.2313902,5.33494174 75.0713818,5.53443975 75.8553858,5.93344174 C76.6393897,6.33244374 77.2658834,6.8959381 77.7348858,7.62394174 C78.2038881,8.35194538 78.4383858,9.18493705 78.4383858,10.1229417 C78.4383858,11.1029466 78.1933882,11.9814379 77.7033858,12.7584417 C77.2133833,13.5354456 76.5028904,14.1444395 75.5718858,14.5854417 C74.6408811,15.0264439 73.5453921,15.2469417 72.2853858,15.2469417 Z M85.9330524,15.2259417 C84.6870461,15.2259417 83.5880571,15.0054439 82.6360524,14.5644417 C81.6840476,14.1234395 80.942055,13.5039457 80.4100524,12.7059417 C79.8780497,11.9079378 79.6120524,10.9909469 79.6120524,9.95494174 C79.6120524,8.75093572 80.2070464,7.31595007 81.3970524,5.64994174 L85.0720524,0.735941742 C85.2680533,0.455940342 85.5200508,0.315941742 85.8280524,0.315941742 L88.7680524,0.315941742 C88.894053,0.315941742 89.0025519,0.361441287 89.0935524,0.452441742 C89.1845528,0.543442197 89.2300524,0.651941112 89.2300524,0.777941742 C89.2300524,0.847942092 89.1950527,0.938941182 89.1250524,1.05094174 L86.3110524,4.87294174 C86.4790532,4.83094153 86.6750512,4.80994174 86.8990524,4.80994174 C87.7530566,4.85194195 88.5825483,5.08993957 89.3875524,5.52394174 C90.1925564,5.95794391 90.8505498,6.549438 91.3615524,7.29844174 C91.8725549,8.04744549 92.1280524,8.90493691 92.1280524,9.87094174 C92.1280524,10.8509466 91.869055,11.7504376 91.3510524,12.5694417 C90.8330498,13.3884458 90.1050571,14.0359394 89.1670524,14.5119417 C88.2290477,14.9879441 87.1510585,15.2259417 85.9330524,15.2259417 Z M85.8910524,12.0759417 C86.5070554,12.0759417 87.0320502,11.8834437 87.4660524,11.4984417 C87.9000545,11.1134398 88.1170524,10.591945 88.1170524,9.93394174 C88.1170524,9.26193838 87.9035545,8.73694363 87.4765524,8.35894174 C87.0495502,7.98093985 86.5210555,7.79194174 85.8910524,7.79194174 C85.2610492,7.79194174 84.7325545,7.98093985 84.3055524,8.35894174 C83.8785502,8.73694363 83.6650524,9.26193838 83.6650524,9.93394174 C83.6650524,10.6059451 83.8785502,11.1309399 84.3055524,11.5089417 C84.7325545,11.8869436 85.2610492,12.0759417 85.8910524,12.0759417 Z M94.687719,15.0159417 C94.5617183,15.0159417 94.4567194,14.9704422 94.372719,14.8794417 C94.2887185,14.7884413 94.246719,14.6799424 94.246719,14.5539417 C94.246719,14.4839414 94.2607188,14.420942 94.288719,14.3649417 L99.118719,3.61294174 L92.881719,3.61294174 C92.7277182,3.61294174 92.5982195,3.56044227 92.493219,3.45544174 C92.3882184,3.35044122 92.335719,3.22094251 92.335719,3.06694174 L92.335719,0.861941742 C92.335719,0.707940972 92.3882184,0.578442267 92.493219,0.473441742 C92.5982195,0.368441217 92.7277182,0.315941742 92.881719,0.315941742 L102.814719,0.315941742 C102.96872,0.315941742 103.098218,0.368441217 103.203219,0.473441742 C103.308219,0.578442267 103.360719,0.707940972 103.360719,0.861941742 L103.360719,2.81494174 C103.360719,3.066943 103.325719,3.28394083 103.255719,3.46594174 C103.185719,3.64794265 103.143719,3.7529416 103.129719,3.78094174 L98.299719,14.5119417 C98.1457182,14.8479434 97.8937207,15.0159417 97.543719,15.0159417 L94.687719,15.0159417 Z M110.813386,15.2259417 C109.455379,15.2259417 108.30739,15.0194438 107.369386,14.6064417 C106.431381,14.1934397 105.734888,13.6369452 105.279886,12.9369417 C104.824883,12.2369382 104.597386,11.4529461 104.597386,10.5849417 C104.597386,9.8569381 104.782884,9.19544472 105.153886,8.60044174 C105.524887,8.00543877 106.011383,7.54694335 106.613386,7.22494174 C105.619381,6.58093852 105.122386,5.61494818 105.122386,4.32694174 C105.122386,3.08093551 105.601881,2.06594566 106.560886,1.28194174 C107.51989,0.497937822 108.937376,0.105941742 110.813386,0.105941742 C112.675395,0.105941742 114.078881,0.494437857 115.023886,1.27144174 C115.96889,2.04844563 116.441386,3.05993551 116.441386,4.30594174 C116.441386,5.57994811 115.96539,6.55293838 115.013386,7.22494174 C115.629389,7.51894321 116.122884,7.96693873 116.493886,8.56894174 C116.864887,9.17094475 117.050386,9.84993796 117.050386,10.6059417 C117.050386,11.4739461 116.819388,12.2544383 116.357386,12.9474417 C115.895383,13.6404452 115.19539,14.1934397 114.257386,14.6064417 C113.319381,15.0194438 112.171392,15.2259417 110.813386,15.2259417 Z M110.813386,6.13294174 C111.401389,6.11894167 111.884384,5.96144325 112.262386,5.66044174 C112.640387,5.35944024 112.829386,4.97794405 112.829386,4.51594174 C112.829386,4.03993936 112.640387,3.65144325 112.262386,3.35044174 C111.884384,3.04944024 111.401389,2.89894174 110.813386,2.89894174 C110.211383,2.89894174 109.724887,3.04944024 109.353886,3.35044174 C108.982884,3.65144325 108.797386,4.03993936 108.797386,4.51594174 C108.797386,4.99194412 108.982884,5.38044024 109.353886,5.68144174 C109.724887,5.98244325 110.211383,6.13294174 110.813386,6.13294174 Z M110.813386,12.4539417 C111.471389,12.4539417 112.013883,12.2859434 112.440886,11.9499417 C112.867888,11.6139401 113.081386,11.1659445 113.081386,10.6059417 C113.081386,10.0459389 112.867888,9.59794342 112.440886,9.26194174 C112.013883,8.92594006 111.471389,8.75794174 110.813386,8.75794174 C110.155382,8.75794174 109.609388,8.92594006 109.175386,9.26194174 C108.741383,9.59794342 108.524386,10.0459389 108.524386,10.6059417 C108.524386,11.1659445 108.741383,11.6139401 109.175386,11.9499417 C109.609388,12.2859434 110.155382,12.4539417 110.813386,12.4539417 Z M121.353052,15.0159417 C121.227052,15.0159417 121.122053,14.9704422 121.038052,14.8794417 C120.954052,14.7884413 120.912052,14.6799424 120.912052,14.5539417 C120.912052,14.4559413 120.940052,14.3649422 120.996052,14.2809417 L123.936052,10.2699417 C123.754051,10.311942 123.565053,10.3259418 123.369052,10.3119417 C122.515048,10.2559415 121.703056,10.0214438 120.933052,9.60844174 C120.163048,9.19543968 119.536555,8.62144542 119.053552,7.88644174 C118.57055,7.15143807 118.329052,6.31494643 118.329052,5.37694174 C118.329052,4.45293712 118.56355,3.58844577 119.032552,2.78344174 C119.501555,1.97843772 120.194548,1.33094419 121.111552,0.840941742 C122.028557,0.350939292 123.131046,0.105941742 124.419052,0.105941742 C125.721059,0.105941742 126.841047,0.329939502 127.779052,0.777941742 C128.717057,1.22594398 129.42755,1.83843786 129.910552,2.61544174 C130.393555,3.39244563 130.635052,4.26393691 130.635052,5.22994174 C130.635052,5.99994559 130.477554,6.70343856 130.162552,7.34044174 C129.847551,7.97744493 129.375055,8.72293747 128.745052,9.57694174 L128.367052,10.1019417 L125.070052,14.5959417 C124.874051,14.8759431 124.622054,15.0159417 124.314052,15.0159417 L121.353052,15.0159417 Z M124.461052,7.45594174 C125.077055,7.45594174 125.58455,7.26694363 125.983552,6.88894174 C126.382554,6.51093985 126.582052,5.99994496 126.582052,5.35594174 C126.582052,4.71193852 126.379054,4.20094363 125.973052,3.82294174 C125.56705,3.44493985 125.063055,3.25594174 124.461052,3.25594174 C123.845049,3.25594174 123.337554,3.44493985 122.938552,3.82294174 C122.53955,4.20094363 122.340052,4.71193852 122.340052,5.35594174 C122.340052,5.99994496 122.53605,6.51093985 122.928052,6.88894174 C123.320054,7.26694363 123.831049,7.45594174 124.461052,7.45594174 Z" id="Combined-Shape"></path>
                </g>
                <path d="M54.66872,27.0159417 C54.5287193,27.0159417 54.4062205,26.9634423 54.30122,26.8584417 C54.1962194,26.7534412 54.14372,26.6309424 54.14372,26.4909417 L54.14372,16.6629417 L51.32972,18.8259417 C51.2177194,18.8959421 51.1127205,18.9309417 51.01472,18.9309417 C50.8467191,18.9309417 50.6997206,18.8469426 50.57372,18.6789417 L49.27172,16.9989417 C49.2157197,16.9009413 49.18772,16.7959423 49.18772,16.6839417 C49.18772,16.4879408 49.2647192,16.3339423 49.41872,16.2219417 L54.29072,12.4629417 C54.4307207,12.3649413 54.5917191,12.3159417 54.77372,12.3159417 L57.54572,12.3159417 C57.6997207,12.3159417 57.8292194,12.3649413 57.93422,12.4629417 C58.0392205,12.5609422 58.09172,12.686941 58.09172,12.8409417 L58.09172,26.4909417 C58.09172,26.6449425 58.0392205,26.7709413 57.93422,26.8689417 C57.8292194,26.9669422 57.6997207,27.0159417 57.54572,27.0159417 L54.66872,27.0159417 Z" id="Path" fill="#EF566C"></path>
                <path d="M60.5883866,27.0159417 C60.4483859,27.0159417 60.3258871,26.9634423 60.2208866,26.8584417 C60.115886,26.7534412 60.0633866,26.6309424 60.0633866,26.4909417 L60.0633866,24.9159417 C60.0633866,24.4959396 60.2383848,24.1459431 60.5883866,23.8659417 L62.5413866,21.9549417 C63.8713932,20.9469367 64.8758832,20.1629445 65.5548866,19.6029417 C66.23389,19.0429389 66.7518848,18.535444 67.1088866,18.0804417 C67.4658884,17.6254395 67.6443866,17.1949438 67.6443866,16.7889417 C67.6443866,15.7529366 67.1263917,15.2349417 66.0903866,15.2349417 C65.5443838,15.2349417 65.124388,15.3994401 64.8303866,15.7284417 C64.5363851,16.0574434 64.3403871,16.4669393 64.2423866,16.9569417 C64.1583861,17.2789434 63.9203885,17.4399417 63.5283866,17.4399417 L60.7563866,17.4399417 C60.6303859,17.4399417 60.521887,17.3944422 60.4308866,17.3034417 C60.3398861,17.2124413 60.2943866,17.1109423 60.2943866,16.9989417 C60.3223867,16.0749371 60.5778842,15.2384455 61.0608866,14.4894417 C61.543889,13.740438 62.2193822,13.1454439 63.0873866,12.7044417 C63.9553909,12.2634395 64.9563809,12.0429417 66.0903866,12.0429417 C67.2663924,12.0429417 68.2813823,12.2319399 69.1353866,12.6099417 C69.9893908,12.9879436 70.6368844,13.5199383 71.0778866,14.2059417 C71.5188888,14.8919452 71.7393866,15.6899372 71.7393866,16.5999417 C71.7393866,17.6079468 71.4278897,18.5179377 70.8048866,19.3299417 C70.1818835,20.1419458 69.2333929,21.023937 67.9593866,21.9759417 L66.2163866,23.7189417 L71.5293866,23.7189417 C71.6833873,23.7189417 71.8093861,23.7679413 71.9073866,23.8659417 C72.0053871,23.9639422 72.0543866,24.089941 72.0543866,24.2439417 L72.0543866,26.4909417 C72.0543866,26.6309424 72.0053871,26.7534412 71.9073866,26.8584417 C71.8093861,26.9634423 71.6833873,27.0159417 71.5293866,27.0159417 L60.5883866,27.0159417 Z" id="Path" fill="#EF566C"></path>
            </g>
        </g>
    </g>
</svg>