<?xml version="1.0" encoding="UTF-8"?>
<svg width="113px" height="129px" viewBox="0 0 113 129" version="1.1" xmlns="http://www.w3.org/2000/svg" xmlns:xlink="http://www.w3.org/1999/xlink">
    <!-- Generator: Sketch 50.2 (55047) - http://www.bohemiancoding.com/sketch -->
    <title>3. Receive</title>
    <desc>Created with Sketch.</desc>
    <defs></defs>
    <g id="Page-1" stroke="none" stroke-width="1" fill="none" fill-rule="evenodd">
        <g id="Desktop-HD-Copy-9" transform="translate(-1017.000000, -246.000000)">
            <g id="3.-Receive" transform="translate(1016.445312, 246.098815)">
                <rect id="Rectangle-7" fill="#E9ECF6" transform="translate(59.672827, 18.906065) rotate(2.000000) translate(-59.672827, -18.906065) " x="43.1728271" y="0.906064518" width="33" height="36" rx="4"></rect>
                <polygon id="Shape" fill="#EF566C" fill-rule="nonzero" transform="translate(58.960563, 20.304538) rotate(2.000000) translate(-58.960563, -20.304538) " points="56.6133403 11.0095377 61.3077848 11.0095377 61.3077848 21.5720378 65.4154237 17.4643988 68.2555626 20.3045377 58.9605626 29.5995378 49.6655625 20.3045377 52.5057014 17.4643988 56.6133403 21.5720378"></polygon>
                <path d="M0.670410156,34.2942519 L17.1435834,34.2942519 L41.8466797,59.084291 C46.5029297,63.5650852 51.5138346,65.8054824 56.8793945,65.8054824 C62.2449544,65.8054824 67.2128906,63.5650852 71.7832031,59.084291 L96.7822266,34.2942519 L113.088379,34.2942519 L78.6015625,68.6506972 C72.2307943,74.4622207 64.9900716,77.3679824 56.8793945,77.3679824 C48.7687174,77.3679824 41.5128581,74.4622207 35.1118164,68.6506972 L0.670410156,34.2942519 Z" id="Path-6" fill="#363C4C"></path>
                <path d="M0.658691406,85.0003066 L17.1318647,85.0003066 L41.8349609,109.790346 C46.4912109,114.27114 51.5021159,116.511537 56.8676758,116.511537 C62.2332357,116.511537 67.2011719,114.27114 71.7714844,109.790346 L96.7705078,85.0003066 L113.07666,85.0003066 L78.5898438,119.356752 C72.2190755,125.168275 64.9783529,128.074037 56.8676758,128.074037 C48.7569987,128.074037 41.5011393,125.168275 35.1000977,119.356752 L0.658691406,85.0003066 Z" id="Path-6-Copy" fill="#363C4C" transform="translate(56.867676, 106.537172) rotate(-180.000000) translate(-56.867676, -106.537172) "></path>
            </g>
        </g>
    </g>
</svg>