<?xml version="1.0" encoding="UTF-8"?>
<svg width="113px" height="95px" viewBox="0 0 113 95" version="1.1" xmlns="http://www.w3.org/2000/svg" xmlns:xlink="http://www.w3.org/1999/xlink">
    <!-- Generator: Sketch 50.2 (55047) - http://www.bohemiancoding.com/sketch -->
    <title>xrp icon</title>
    <desc>Created with Sketch.</desc>
    <defs></defs>
    <g id="Page-1" stroke="none" stroke-width="1" fill="none" fill-rule="evenodd">
        <g id="Desktop-HD-Copy-9" transform="translate(-1017.000000, -280.000000)" fill="#363C4C">
            <g id="3.-Receive" transform="translate(1016.445312, 246.098815)">
                <g id="xrp-icon" transform="translate(0.000000, 34.000000)">
                    <path d="M0.670410156,0.294251901 L17.1435834,0.294251901 L41.8466797,25.084291 C46.5029297,29.5650852 51.5138346,31.8054824 56.8793945,31.8054824 C62.2449544,31.8054824 67.2128906,29.5650852 71.7832031,25.084291 L96.7822266,0.294251901 L113.088379,0.294251901 L78.6015625,34.6506972 C72.2307943,40.4622207 64.9900716,43.3679824 56.8793945,43.3679824 C48.7687174,43.3679824 41.5128581,40.4622207 35.1118164,34.6506972 L0.670410156,0.294251901 Z" id="Path-6"></path>
                    <path d="M0.658691406,51.0003066 L17.1318647,51.0003066 L41.8349609,75.7903457 C46.4912109,80.2711399 51.5021159,82.5115371 56.8676758,82.5115371 C62.2332357,82.5115371 67.2011719,80.2711399 71.7714844,75.7903457 L96.7705078,51.0003066 L113.07666,51.0003066 L78.5898438,85.3567519 C72.2190755,91.1682753 64.9783529,94.0740371 56.8676758,94.0740371 C48.7569987,94.0740371 41.5011393,91.1682753 35.1000977,85.3567519 L0.658691406,51.0003066 Z" id="Path-6-Copy" transform="translate(56.867676, 72.537172) rotate(-180.000000) translate(-56.867676, -72.537172) "></path>
                </g>
            </g>
        </g>
    </g>
</svg>