<?xml version="1.0" encoding="UTF-8"?>
<svg width="27px" height="23px" viewBox="0 0 27 23" version="1.1" xmlns="http://www.w3.org/2000/svg" xmlns:xlink="http://www.w3.org/1999/xlink">
    <!-- Generator: Sketch 50.2 (55047) - http://www.bohemiancoding.com/sketch -->
    <title>xrp icon copy</title>
    <desc>Created with Sketch.</desc>
    <defs></defs>
    <g id="Page-1" stroke="none" stroke-width="1" fill="none" fill-rule="evenodd">
        <g id="Desktop-HD-Copy-9" transform="translate(-806.000000, -615.000000)" fill="#FFFFFF">
            <g id="xrp-icon-copy" transform="translate(806.753906, 615.648438)">
                <path d="M0.153717344,0.0674685794 L3.93082666,0.0674685794 L9.59496275,5.75153965 C10.6625874,6.77893428 11.8115303,7.2926316 13.0417915,7.2926316 C14.2720527,7.2926316 15.4111434,6.77893428 16.4590635,5.75153965 L22.1910523,0.0674685794 L25.9298657,0.0674685794 L18.022435,7.94500666 C16.561691,9.2775222 14.9014766,9.94377997 13.0417915,9.94377997 C11.1821065,9.94377997 9.51842129,9.2775222 8.050736,7.94500666 L0.153717344,0.0674685794 Z" id="Path-6-Copy-2"></path>
                <path d="M0.15103037,11.6937842 L3.92813969,11.6937842 L9.59227577,17.3778553 C10.6599004,18.4052499 11.8088433,18.9189472 13.0391045,18.9189472 C14.2693658,18.9189472 15.4084564,18.4052499 16.4563766,17.3778553 L22.1883653,11.6937842 L25.9271787,11.6937842 L18.019748,19.5713223 C16.5590041,20.9038378 14.8987896,21.5700956 13.0391045,21.5700956 C11.1794195,21.5700956 9.51573431,20.9038378 8.04804902,19.5713223 L0.15103037,11.6937842 Z" id="Path-6-Copy-3" transform="translate(13.039105, 16.631940) rotate(-180.000000) translate(-13.039105, -16.631940) "></path>
            </g>
        </g>
    </g>
</svg>